<svg xmlns="http://www.w3.org/2000/svg" height="1200" width="1600" version="1.1" xmlns:xlink="http://www.w3.org/1999/xlink" xmlns:svgjs="http://svgjs.com/svgjs"><rect fill="#effaff" width="1600" height="1200"></rect><g><path d="M225.7 828.05C227.33 804.72 232.13 781.26 239.52 760.16 258.15 708 290.32 667.11 324.21 632.12 331.7 624.38 339.48 616.39 343.22 604.73 351.77 577.86 344.86 538.54 349.66 508.92 353.88 482.45 360.99 457.03 370.59 433.3 389.99 385.6 419.08 346.81 451.44 316.01 518.08 252.71 600.27 217.85 680.35 205.66 807.39 186.52 938.65 215.36 1054.25 290.32 1096.89 317.97 1133.47 361.62 1157.48 418.1 1183.59 479.44 1191.75 557.02 1172.74 623.21 1223.92 639.98 1276.44 660.56 1317.64 705.64 1352.78 744.17 1379.09 808.91 1374.29 871.69 1368.82 941.8 1321.38 979.29 1275.39 996.32 1085.56 1067.88 882.67 1061.59 687.46 1050.19 581.07 1043.9 474.68 1034.72 369.73 1010.48 321.91 999.34 269.58 981.12 242.4 926.34 228.19 897.77 223.39 862.65 225.7 828.05Z" fill="#deeff7" opacity="1" stroke-width="2" stroke="none"></path></g><g><path d="M1047.51 364V364.95H1071.13C1102.38 364.95 1127.9 339.43 1127.9 308.18H1099.52C1070.56 310.09 1047.51 334.28 1047.51 364Z" fill="#78c7e0" stroke="#333333" stroke-width="2" stroke-linecap="round" stroke-linejoin="round" opacity="1"></path><path d="M1025.79 364V364.95H1047.51V364C1047.51 334.28 1070.75 310.09 1099.52 308.18H1077.8C1048.46 310.09 1025.79 334.28 1025.79 364Z" fill="#78c7e0" stroke="#333333" stroke-width="2" stroke-linecap="round" stroke-linejoin="round" opacity="1"></path><path d="M1063.13 411.82H1011.12C997.98 411.82 987.5 401.34 987.5 388.2 987.5 375.05 997.98 364.57 1011.12 364.57H1085.8C1098.95 364.57 1109.42 375.05 1109.42 388.2 1109.42 401.34 1098.95 411.82 1085.8 411.82H1063.13Z" fill="#abedd8" stroke="#333333" stroke-width="2" stroke-linecap="round" stroke-linejoin="round" opacity="1"></path></g><g><path d="M513.48 893.18L265.88 893.51" stroke="#333333" stroke-width="2" stroke-linecap="round" stroke-linejoin="round" opacity="1" fill="none"></path></g><g><path d="M387.45 859.18L392.01 853.05C403.39 839.28 420.71 830.62 439.92 830.62 462.67 830.62 482.71 842.92 493.62 861.11 499.11 870.46 502.38 881.24 502.38 892.99H475.29L377.55 892.99C377.41 880.6 381.19 868.85 387.45 859.18Z" fill="#3d84a8" stroke="#333333" stroke-width="2" stroke-linecap="round" stroke-linejoin="round" opacity="1"></path><path d="M229.04 835.73L236.69 825.37C256.03 802.15 285.15 787.46 317.71 787.46 356.31 787.46 390.08 808.19 408.55 839.14 417.9 854.94 423.33 873.27 423.33 892.99H377.59 212.23C212.18 871.94 218.45 852.27 229.04 835.73Z" fill="#48466d" stroke="#333333" stroke-width="2" stroke-linecap="round" stroke-linejoin="round" opacity="1"></path></g><g><path d="M913.74 942.92H767.69C759.09 942.92 752.17 935.95 752.17 927.41 752.17 918.8 759.15 911.89 767.69 911.89H813.72C824.16 911.89 832.57 903.48 832.57 893.05" stroke="#333333" stroke-width="2" stroke-linecap="round" stroke-linejoin="round" opacity="1" fill="none"></path><path d="M675.5 1139.12H634.29C614.99 1139.12 599.28 1123.47 599.28 1104.1 599.28 1084.8 614.93 1069.09 634.29 1069.09H1002.81C1037.69 1069.09 1065.92 1040.79 1065.92 1005.97 1065.92 971.09 1037.63 942.86 1002.81 942.86H925.02" stroke="#333333" stroke-width="2" stroke-linecap="round" stroke-linejoin="round" opacity="1" fill="none"></path></g><g><path d="M488.61 305.71V306.68H464.58C432.81 306.68 406.85 280.71 406.85 248.94L435.71 248.94C465.17 250.88 488.61 275.48 488.61 305.71Z" fill="#78c7e0" stroke="#333333" stroke-width="2" stroke-linecap="round" stroke-linejoin="round" opacity="1"></path><path d="M510.7 305.71V306.68H488.61V305.71C488.61 275.48 464.97 250.88 435.71 248.94H457.8C487.64 250.88 510.7 275.48 510.7 305.71Z" fill="#78c7e0" stroke="#333333" stroke-width="2" stroke-linecap="round" stroke-linejoin="round" opacity="1"></path><path d="M472.72 354.34H525.62C538.99 354.34 549.64 343.68 549.64 330.32 549.64 316.95 538.99 306.29 525.62 306.29H449.67C436.3 306.29 425.64 316.95 425.64 330.32 425.64 343.68 436.3 354.34 449.67 354.34H472.72Z" fill="#3d84a8" stroke="#333333" stroke-width="2" stroke-linecap="round" stroke-linejoin="round" opacity="1"></path></g><g><path d="M744.99 445.29L693.8 462.15 727.29 563.88 778.49 547.02 744.99 445.29Z" fill="#46cdcf" stroke="#333333" stroke-width="2" stroke-linecap="round" stroke-linejoin="round" opacity="1"></path><path d="M650.6 485.89L794.48 438.4C803.9 435.39 808.91 425.27 805.9 416.05L628.46 474.47C631.16 483.88 641.38 488.79 650.6 485.89Z" fill="#46cdcf" stroke="#333333" stroke-width="2" stroke-linecap="round" stroke-linejoin="round" opacity="1"></path><path d="M530.97 619.75L970.12 475.17 984.35 518.65 978.94 538.89 560.02 676.36 545.2 663.33 530.97 619.75Z" fill="#46cdcf" stroke="#333333" stroke-width="2" stroke-linecap="round" stroke-linejoin="round" opacity="1"></path><path d="M617.54 639.49L984.35 518.65 1059.9 748.1 620.74 892.68 545.2 663.33 557.62 659.13" fill="#abedd8" opacity="1" stroke-width="2" stroke="none"></path><path d="M617.54 639.49L984.35 518.65 1059.9 748.1 620.74 892.68 545.2 663.33 557.62 659.13" stroke="#333333" stroke-width="2" stroke-linecap="round" stroke-linejoin="round" opacity="1" fill="none"></path><path d="M601.41 644.7L570.85 654.92" stroke="#333333" stroke-width="2" stroke-linecap="round" stroke-linejoin="round" opacity="1" fill="none"></path><path d="M871.33 723.45L831.05 703.61" stroke="#333333" stroke-width="2" stroke-linecap="round" stroke-linejoin="round" opacity="1" fill="none"></path><path d="M841.27 733.67L861.11 693.39" stroke="#333333" stroke-width="2" stroke-linecap="round" stroke-linejoin="round" opacity="1" fill="none"></path><path d="M794.48 749.3L754.2 729.46" stroke="#333333" stroke-width="2" stroke-linecap="round" stroke-linejoin="round" opacity="1" fill="none"></path><path d="M764.42 759.52L784.26 719.24" stroke="#333333" stroke-width="2" stroke-linecap="round" stroke-linejoin="round" opacity="1" fill="none"></path><path d="M840.97 633.28C844.68 644.2 838.77 655.92 828.05 659.63L760.42 682.47C749.49 686.18 737.77 680.27 734.06 669.55" stroke="#333333" stroke-width="2" stroke-linecap="round" stroke-linejoin="round" opacity="1" fill="none"></path></g><g><path d="M1084.58 797.11L1068.7 824.66 1084.58 861.71 1073.73 893.06H1250.29C1276.75 893.06 1298.33 871.48 1298.33 845.02 1298.33 818.55 1276.75 796.97 1250.29 796.97L1084.58 797.11Z" fill="#48466d" stroke="#333333" stroke-width="2" stroke-linecap="round" stroke-linejoin="round" opacity="1"></path><path d="M1114.03 826.56H1184.2" stroke="#333333" stroke-width="2" stroke-linecap="round" stroke-linejoin="round" opacity="1" fill="none"></path><path d="M1203.6 826.56H1224.37" stroke="#333333" stroke-width="2" stroke-linecap="round" stroke-linejoin="round" opacity="1" fill="none"></path></g></svg>