<svg width="39" height="32" viewBox="0 0 39 32" fill="#2d364e" class="code" xmlns="http://www.w3.org/2000/svg">
<path class="code" d="M16.5612 31.1673L12.9393 30.0887C12.5593 29.979 12.3455 29.5707 12.4524 29.1807L20.5571 0.527891C20.664 0.137891 21.0618 -0.081484 21.4418 0.0282034L25.0637 1.1068C25.4437 1.21648 25.6574 1.62477 25.5505 2.01477L17.4459 30.6676C17.333 31.0576 16.9412 31.283 16.5612 31.1673ZM9.79242 24.3301L12.3752 21.5026C12.6484 21.204 12.6305 20.7287 12.3277 20.4545L6.94836 15.5977L12.3277 10.741C12.6305 10.4668 12.6543 9.99148 12.3752 9.69289L9.79242 6.86539C9.52523 6.57289 9.07398 6.55461 8.78305 6.83492L0.227109 15.0615C-0.0757031 15.3479 -0.0757031 15.8415 0.227109 16.1279L8.78305 24.3605C9.07398 24.6409 9.52523 24.6287 9.79242 24.3301ZM29.2199 24.3666L37.7759 16.134C38.0787 15.8476 38.0787 15.354 37.7759 15.0676L29.2199 6.82883C28.9349 6.55461 28.4837 6.5668 28.2105 6.8593L25.6277 9.6868C25.3546 9.98539 25.3724 10.4607 25.6752 10.7349L31.0546 15.5977L25.6752 20.4545C25.3724 20.7287 25.3487 21.204 25.6277 21.5026L28.2105 24.3301C28.4777 24.6287 28.929 24.6409 29.2199 24.3666Z" fill="#102A42"/>
</svg>
