<svg width="451" height="376" viewBox="0 0 451 376" fill="none" xmlns="http://www.w3.org/2000/svg">
<mask id="mask0_25_308" style="mask-type:luminance" maskUnits="userSpaceOnUse" x="0" y="0" width="451" height="376">
<path d="M450.156 0.80127H0V375.198H450.156V0.80127Z" fill="white"/>
</mask>
<g mask="url(#mask0_25_308)">
<path opacity="0.1" d="M261.544 50.4748C232.685 49.4715 205.2 40.1566 178.954 29.9633C152.708 19.77 126.712 8.47521 98.5444 3.07533C80.4274 -0.398247 59.7063 -0.88874 45.1119 8.82301C31.0616 18.187 26.5223 34.3064 24.0832 49.2798C22.2461 60.5433 21.167 72.3998 26.1968 82.9409C29.6926 90.2627 35.8907 96.4161 40.1803 103.43C55.1046 127.83 44.5546 157.919 28.3861 181.744C20.8058 192.923 11.9992 203.593 6.14454 215.481C0.289838 227.369 -2.41679 241.009 2.70663 253.146C7.781 265.186 19.8783 274.211 32.9834 280.565C59.5993 293.474 90.9507 297.166 121.544 299.257C189.245 303.89 257.303 301.883 325.183 299.877C350.305 299.132 375.535 298.379 400.246 294.495C413.971 292.337 428.138 288.917 438.103 280.65C450.749 270.158 453.884 252.393 445.407 239.234C431.192 217.166 391.899 211.686 381.951 188.004C376.484 174.966 382.098 160.448 390.049 148.355C407.1 122.421 435.678 99.6667 437.18 70.0232C438.215 49.6633 424.477 29.2721 403.234 19.6362C380.97 9.54091 350.091 10.8073 333.673 27.5242C316.751 44.736 287.027 51.3577 261.544 50.4748Z" fill="#2CAEBA"/>
<path opacity="0.1" d="M215.589 367.382C290.447 367.382 351.13 359.173 351.13 349.047C351.13 338.92 290.447 330.711 215.589 330.711C140.732 330.711 80.0483 338.92 80.0483 349.047C80.0483 359.173 140.732 367.382 215.589 367.382Z" fill="#2CAEBA"/>
<path d="M148.49 294.459C148.49 294.459 157.854 292.961 163.472 299.578C163.472 299.578 159.352 302.824 150.488 298.33L148.49 294.459Z" fill="#2CAEBA"/>
<path d="M147.491 294.312C147.491 294.312 141.516 301.705 144.446 309.852C144.446 309.852 149.315 307.903 149.845 297.977L147.491 294.312Z" fill="#2CAEBA"/>
<path d="M142.14 282.224C142.14 282.224 145.886 275.357 160.868 284.97C160.868 284.97 158.871 289.59 152.253 289.215C145.636 288.841 143.866 285.844 142.14 282.224Z" fill="#2CAEBA"/>
<path d="M141.155 281.729C141.155 281.729 133.383 280.837 132.629 298.628C132.629 298.628 137.556 299.654 141.057 294.022C144.557 288.391 143.108 285.242 141.155 281.729Z" fill="#2CAEBA"/>
<path d="M136.624 267.54C136.624 267.54 140.994 255.425 156.855 264.04C156.855 264.04 153.234 275.156 138.248 271.66L136.624 267.54Z" fill="#2CAEBA"/>
<path d="M131.755 249.432C131.755 249.432 139.995 237.196 154.608 248.54C154.608 248.54 149.489 260.027 133.004 253.784L131.755 249.432Z" fill="#2CAEBA"/>
<path d="M130.007 232.202C130.007 232.202 139.621 220.966 154.086 232.202C154.086 232.202 144.967 242.066 130.007 235.074V232.202Z" fill="#2CAEBA"/>
<path d="M128.509 215.472C128.509 215.472 138.248 203.731 152.111 214.848C152.111 214.848 141.119 225.211 128.509 218.219V215.472Z" fill="#2CAEBA"/>
<path d="M129.383 200.61C129.383 200.61 139.639 185.503 152.61 195.741C152.61 195.741 141.619 208.73 129.383 203.482V200.61Z" fill="#2CAEBA"/>
<path d="M131.755 183.256C131.755 183.256 142.617 168.273 155.232 179.76C155.232 179.76 142.368 192.744 131.755 186.002V183.256Z" fill="#2CAEBA"/>
<path d="M135.38 167.743C135.38 167.743 148.236 153.666 159.459 159.271C159.459 159.271 146.055 174.222 134.819 171.475L135.38 167.743Z" fill="#2CAEBA"/>
<path d="M139.871 153.041C139.871 153.041 154.733 135.807 163.347 141.55C163.347 141.55 152.414 154.927 138.823 156.287L139.871 153.041Z" fill="#2CAEBA"/>
<path d="M146.359 135.981C146.359 135.981 159.352 121.899 168.841 125.395C168.841 125.395 157.729 140.008 144.615 140.382L146.359 135.981Z" fill="#2CAEBA"/>
<path d="M152.236 120.027C152.236 120.027 166.594 106.543 172.836 108.915C172.836 108.915 162.473 123.897 151.611 123.023L152.236 120.027Z" fill="#2CAEBA"/>
<path d="M157.979 105.294C157.979 105.294 170.339 89.188 177.081 90.4366C177.081 90.4366 169.59 104.795 157.979 106.935V105.294Z" fill="#2CAEBA"/>
<path d="M164.208 85.4424C164.208 85.4424 175.137 73.0909 181.036 73.1221C181.036 73.1221 172.413 89.6205 163.762 89.4689L164.208 85.4424Z" fill="#2CAEBA"/>
<path d="M167.905 72.2035L178.455 46.4839C178.455 46.4839 178.985 69.7332 166.558 76.9747L167.905 72.2035Z" fill="#2CAEBA"/>
<path d="M172.185 43.8397C172.185 43.8397 173.933 22.365 172.809 20.6171C172.809 20.6171 180.359 38.4532 172.114 53.3285L172.185 43.8397Z" fill="#2CAEBA"/>
<path d="M136.219 267.25C136.219 267.25 125.272 260.468 118.191 277.06C118.191 277.06 127.929 283.526 137.503 271.482L136.219 267.25Z" fill="#2CAEBA"/>
<path d="M131.407 248.741C131.407 248.741 117.986 242.619 111.471 259.942C111.471 259.942 121.843 267.076 132.629 253.12L131.407 248.741Z" fill="#2CAEBA"/>
<path d="M129.383 233.232C129.383 233.232 119.769 221.996 105.304 233.232C105.304 233.232 114.419 243.096 129.383 236.104V233.232Z" fill="#2CAEBA"/>
<path d="M128.184 215.472C128.184 215.472 118.441 203.731 104.582 214.848C104.582 214.848 115.569 225.211 128.184 218.219V215.472Z" fill="#2CAEBA"/>
<path d="M129.383 201.038C129.383 201.038 122.552 184.116 107.703 191.393C107.703 191.393 115.729 206.402 128.781 203.847L129.383 201.038Z" fill="#2CAEBA"/>
<path d="M132.616 183.171C132.616 183.171 125.829 165.955 110.767 173.936C110.767 173.936 119.988 189.717 131.947 185.833L132.616 183.171Z" fill="#2CAEBA"/>
<path d="M136.825 167.832C136.825 167.832 134.15 148.952 121.687 147.262C121.687 147.262 124.331 167.167 135.162 171.23L136.825 167.832Z" fill="#2CAEBA"/>
<path d="M140.192 153.072C140.192 153.072 139.144 130.331 128.821 129.542C128.821 129.542 129.169 146.799 139.028 156.296L140.192 153.072Z" fill="#2CAEBA"/>
<path d="M147.433 135.33C147.433 135.33 144.352 116.424 134.502 114.11C134.502 114.11 135.724 132.423 146.457 139.972L147.433 135.33Z" fill="#2CAEBA"/>
<path d="M153.404 120.165C153.404 120.165 153.297 100.465 147.277 97.5709C147.277 97.5709 143.545 115.407 151.66 122.68L153.404 120.165Z" fill="#2CAEBA"/>
<path d="M158.438 105.062C158.438 105.062 157.591 84.7735 151.362 81.9153C151.362 81.9153 149.226 97.9678 157.502 106.386L158.438 105.062Z" fill="#2CAEBA"/>
<path d="M165.082 87.0476C165.082 87.0476 165.042 70.5492 160.592 66.6788C160.592 66.6788 156.168 84.7557 162.759 90.3651L165.082 87.0476Z" fill="#2CAEBA"/>
<path d="M167.378 71.3921L163.053 43.929C163.053 43.929 157.167 66.4336 167.583 76.3461L167.378 71.3921Z" fill="#2CAEBA"/>
<path d="M168.226 44.0984C168.226 44.0984 157.109 25.6425 157.341 23.5869C157.341 23.5869 158.518 42.9391 172.502 52.5706L168.226 44.0984Z" fill="#2CAEBA"/>
<path d="M169.528 38.6495C169.528 38.6495 159.04 12.426 154.296 10.3035C154.296 10.3035 169.278 17.9195 170.402 37.9004L169.528 38.6495Z" fill="#2CAEBA"/>
<path d="M163.704 89.6116L162.986 89.3931C171.837 60.5298 174.049 42.1274 169.207 37.5168L169.724 36.9728C174.852 41.8376 172.774 60.0259 163.704 89.6116Z" fill="#444053"/>
<path d="M139.331 157.175L138.274 156.8C139.211 154.156 140.223 151.472 141.284 148.823C150.523 125.797 158.389 104.38 163.432 87.935L164.355 87.4891C159.303 103.965 151.58 126.207 142.328 149.26C141.271 151.882 140.263 154.557 139.331 157.175Z" fill="#444053"/>
<path d="M161.666 316.063C161.524 315.903 147.175 299.752 137.177 272.169C131.315 256.025 128.049 239.055 127.501 221.889C126.815 200.427 131.318 176.465 139.032 154.7L139.871 155.681C122.556 204.534 129.437 246.4 138.56 271.616C148.459 298.945 162.638 314.926 162.781 315.082L161.666 316.063Z" fill="#444053"/>
<path d="M156.534 104.523H156.36C155.796 104.523 155.339 104.98 155.339 105.544V114.221C155.339 114.785 155.796 115.242 156.36 115.242H156.534C157.098 115.242 157.555 114.785 157.555 114.221V105.544C157.555 104.98 157.098 104.523 156.534 104.523Z" fill="#3A3768"/>
<path d="M156.695 104.523H156.36C155.796 104.523 155.339 104.98 155.339 105.544V122.319C155.339 122.883 155.796 123.34 156.36 123.34H156.695C157.258 123.34 157.716 122.883 157.716 122.319V105.544C157.716 104.98 157.258 104.523 156.695 104.523Z" fill="#3A3768"/>
<path d="M270.038 124.151H172.644C163.043 124.151 155.259 131.935 155.259 141.537V375.373C155.259 384.975 163.043 392.758 172.644 392.758H270.038C279.64 392.758 287.424 384.975 287.424 375.373V141.537C287.424 131.935 279.64 124.151 270.038 124.151Z" fill="#3A3768"/>
<path d="M260.657 149.336H245.496V151.16C245.496 152.295 245.272 153.419 244.838 154.468C244.403 155.516 243.766 156.469 242.963 157.272C242.16 158.074 241.207 158.711 240.158 159.145C239.109 159.579 237.985 159.802 236.85 159.801H188.635C187.499 159.802 186.375 159.579 185.326 159.145C184.277 158.711 183.324 158.074 182.521 157.272C181.718 156.469 181.081 155.516 180.647 154.468C180.212 153.419 179.988 152.295 179.988 151.16V149.336H165.795C163.012 149.336 160.342 150.442 158.373 152.41C156.405 154.379 155.299 157.048 155.299 159.832V393.472C155.299 396.256 156.405 398.925 158.373 400.894C160.342 402.862 163.012 403.968 165.795 403.968H260.657C263.441 403.968 266.11 402.862 268.079 400.894C270.047 398.925 271.153 396.256 271.153 393.472V159.85C271.156 158.47 270.886 157.103 270.359 155.828C269.833 154.552 269.06 153.393 268.085 152.416C267.11 151.44 265.952 150.665 264.678 150.137C263.403 149.608 262.037 149.336 260.657 149.336Z" fill="#2CAEBA"/>
<path d="M245.483 82.0489C245.483 82.0489 207.938 79.7838 212.362 106.092C212.362 106.092 211.47 110.743 215.697 112.852C215.697 112.852 215.764 110.903 219.55 111.568C220.897 111.791 222.267 111.857 223.63 111.764C225.468 111.643 227.218 110.928 228.615 109.726C228.615 109.726 239.169 105.365 243.272 88.1177C243.272 88.1177 246.308 84.3542 246.188 83.3866L239.852 86.0933C239.852 86.0933 242.019 90.6638 240.297 94.4629C240.297 94.4629 240.092 86.2583 238.875 86.4366C238.63 86.4723 235.584 88.0196 235.584 88.0196C235.584 88.0196 239.308 95.9789 236.498 101.767C236.498 101.767 237.564 91.9569 234.42 88.5948L229.961 91.1989C229.961 91.1989 234.313 99.4213 231.362 106.132C231.362 106.132 232.12 95.8407 229.021 91.832L224.981 94.9846C224.981 94.9846 229.07 103.087 226.577 108.651C226.577 108.651 226.251 96.6745 224.107 95.7694C224.107 95.7694 220.571 98.8907 220.031 100.166C220.031 100.166 222.831 106.052 221.092 109.155C221.092 109.155 220.027 101.174 219.153 101.129C219.153 101.129 215.63 106.417 215.264 110.047C215.264 110.047 215.416 104.656 218.301 100.63C218.301 100.63 214.894 101.214 212.906 103.421C212.906 103.421 213.454 99.6844 219.171 99.3544C219.171 99.3544 222.082 95.3413 222.858 95.1005C222.858 95.1005 217.177 94.6234 213.731 96.1528C213.731 96.1528 216.763 92.6257 223.902 94.231L227.892 90.9714C227.892 90.9714 220.41 89.9503 217.235 91.0785C217.235 91.0785 220.887 87.9571 228.967 90.2312L233.31 87.6361C233.31 87.6361 226.929 86.2627 223.13 86.7443C223.13 86.7443 227.143 84.5817 234.585 86.9271L237.707 85.5314C237.707 85.5314 233.034 84.6129 231.665 84.4657C230.296 84.3186 230.225 83.944 230.225 83.944C233.185 83.4503 236.225 83.7884 239.004 84.9205C239.004 84.9205 245.595 82.4636 245.483 82.0489Z" fill="#2CAEBA"/>
<path d="M296.003 45.6189C296.003 45.6189 279.059 44.5978 281.039 56.4856C281.039 56.4856 280.642 58.5858 282.546 59.54C282.546 59.54 282.577 58.6482 284.29 58.9559C284.898 59.0582 285.516 59.0882 286.131 59.0451C286.963 58.9901 287.754 58.6643 288.383 58.1176C288.383 58.1176 293.154 56.1467 295.009 48.3523C295.009 48.3523 296.378 46.6534 296.324 46.2164L293.462 47.4382C293.462 47.4382 294.438 49.5027 293.671 51.2195C293.671 51.2195 293.578 47.514 293.029 47.5987C292.918 47.5987 291.54 48.3166 291.54 48.3166C291.54 48.3166 293.225 51.9151 291.955 54.5281C291.955 54.5281 292.436 50.0958 291.014 48.5753L288.998 49.7703C288.998 49.7703 290.965 53.4847 289.631 56.5168C289.631 56.5168 289.975 51.866 288.575 50.0557L286.751 51.4825C286.751 51.4825 288.597 55.1434 287.473 57.6583C287.473 57.6583 287.322 52.245 286.354 51.8348C286.354 51.8348 284.758 53.2439 284.512 53.8235C284.512 53.8235 285.779 56.4989 284.994 57.8857C284.994 57.8857 284.512 54.2784 284.102 54.2605C284.102 54.2605 282.51 56.6506 282.345 58.2736C282.425 56.7603 282.898 55.294 283.719 54.0197C282.8 54.1937 281.952 54.6323 281.28 55.2816C281.28 55.2816 281.529 53.5917 284.111 53.4445C284.111 53.4445 285.449 51.6297 285.779 51.5182C285.779 51.5182 283.21 51.3042 281.654 51.9953C281.654 51.9953 283.023 50.4035 286.247 51.1258L288.031 49.6544C288.031 49.6544 284.646 49.2084 283.215 49.7034C283.215 49.7034 284.865 48.2943 288.517 49.3199L290.479 48.1472C290.479 48.1472 287.594 47.5274 285.877 47.7503C285.877 47.7503 287.692 46.7738 291.054 47.8306L292.458 47.2019C292.458 47.2019 290.345 46.7872 289.725 46.7203C289.105 46.6534 289.074 46.484 289.074 46.484C290.413 46.2613 291.787 46.4157 293.043 46.9299C293.043 46.9299 296.057 45.8062 296.003 45.6189Z" fill="#2CAEBA"/>
<path opacity="0.1" d="M268.817 101.655H176.537V297.514H268.817V101.655Z" fill="black"/>
<path d="M186.173 108.848L177.206 109.74L176.956 106.739L176.782 104.674L176.537 101.655L185.009 102.101L185.683 105.976L185.825 106.819H185.83L186.173 108.848Z" fill="#8E6F7F"/>
<path d="M260.144 336.704L259.899 339.718L259.729 341.783L259.475 344.784L250.503 343.892L250.86 341.863L250.998 341.025L251.672 337.15L260.144 336.704Z" fill="#8E6F7F"/>
<path d="M250.642 293.278L223.977 294.531C222.764 294.59 221.551 294.59 220.338 294.531L194.864 293.282V273.1H250.642V293.278Z" fill="#5F5570"/>
<path opacity="0.1" d="M250.642 293.278L223.977 294.531C222.764 294.59 221.551 294.59 220.338 294.531L194.864 293.282V273.1H250.642V293.278Z" fill="black"/>
<path d="M216.495 218.727C216.495 218.727 207.612 221.71 204.268 224.163C203.572 224.671 202.93 225.09 202.368 225.434C200.303 226.707 198.722 228.634 197.878 230.909C197.856 230.972 197.833 231.025 197.811 231.074C197.365 232.077 195.247 238.877 195.247 238.877C195.247 238.877 193.687 242.668 193.464 245.12C193.241 247.573 206.172 254.15 206.172 254.15C206.172 254.15 199.929 267.75 202.716 271.205C205.503 274.661 246.192 276.333 245.3 271.205C244.408 266.077 242.847 257.605 243.628 255.264L257.451 245.232C257.451 245.232 256.893 231.186 252.546 227.507C248.198 223.828 242.736 222.491 242.736 222.491L234.081 220.261C234.081 220.261 231.031 227.841 227.687 228.845C224.342 229.848 217.016 225.215 216.495 218.727Z" fill="#EAEAF2"/>
<path opacity="0.1" d="M228.971 231.493C228.971 231.493 225.199 234.641 223.219 231.493C223.219 231.493 221.435 236.817 223.219 238.601L223.152 238.962L222.835 240.55L218.706 274.884L222.104 280.748L228.289 272.989L227.789 240.884L227.566 239.042L227.513 238.597H228.57C228.57 238.597 231.374 233.75 228.971 231.493Z" fill="black"/>
<path opacity="0.1" d="M229.863 231.493C229.863 231.493 226.09 234.641 224.111 231.493C224.111 231.493 222.327 236.817 224.111 238.601L224.044 238.962L223.727 240.55L219.598 274.884L222.996 280.748L229.18 272.989L228.681 240.884L228.458 239.042L228.405 238.597H229.461C229.461 238.597 232.266 233.75 229.863 231.493Z" fill="black"/>
<path d="M228.735 272.548L222.55 280.293L219.143 274.46L223.277 240.108L223.593 238.521L223.665 238.155L224.222 236.71L227.959 238.155L228.012 238.601L228.235 240.443L228.735 272.548Z" fill="#BC8487"/>
<path opacity="0.1" d="M194.351 340.57C192.427 340.558 190.508 340.362 188.621 339.986C187.689 339.754 186.521 339.495 185.455 339.268L185.206 336.249L193.678 336.695L194.351 340.57Z" fill="black"/>
<path d="M222.617 294.571C221.877 296.653 199.769 296.287 199.769 296.287C199.769 296.287 198.583 327.501 196.799 331.367C195.015 335.233 194.864 340.133 194.864 340.133C194.864 340.133 191.002 340.133 188.621 339.54C186.24 338.947 182.379 338.202 182.379 338.202L183.422 285.251C183.422 285.251 183.868 284.694 184.907 281.345C185.576 279.192 189.5 276.4 192.215 274.657C193.731 273.702 194.864 273.078 194.864 273.078L208.054 273.613L216.196 273.943C216.196 273.943 223.361 292.488 222.617 294.571Z" fill="#5F5570"/>
<path opacity="0.1" d="M194.846 343.442L185.874 344.333L185.62 341.332C185.956 341.342 186.288 341.414 186.597 341.546C188.233 342.724 192.911 341.787 194.494 341.413L194.846 343.442Z" fill="black"/>
<path d="M196.54 352.114C196.551 352.538 196.459 352.957 196.272 353.337C196.084 353.717 195.808 354.045 195.466 354.295C194.901 354.738 194.234 355.031 193.526 355.146C193.322 355.164 193.123 355.225 192.944 355.325C192.765 355.425 192.609 355.562 192.487 355.726C191.496 357.124 190.138 358.221 188.563 358.897C185.473 360.109 181.126 361.3 179.088 359.441C178.92 359.291 178.77 359.122 178.642 358.937C175.801 354.87 180.483 350.518 180.483 350.518C180.483 350.518 182.597 345.56 183.547 343.277C183.649 342.98 183.813 342.709 184.028 342.481C184.242 342.252 184.502 342.071 184.792 341.95C185.081 341.829 185.392 341.77 185.705 341.777C186.019 341.785 186.327 341.858 186.61 341.992C188.394 343.277 193.803 342.046 194.859 341.774C195.916 341.502 196.255 345.836 196.255 345.836L196.54 352.047C196.538 352.07 196.538 352.092 196.54 352.114Z" fill="#BC8487"/>
<path opacity="0.1" d="M260.148 336.7L259.899 339.714C258.833 339.941 257.669 340.2 256.728 340.432C254.843 340.809 252.926 341.006 251.003 341.02L251.676 337.145L260.148 336.7Z" fill="black"/>
<path d="M262.98 338.648C262.98 338.648 259.118 339.393 256.737 339.986C254.356 340.579 250.495 340.579 250.495 340.579C250.495 340.579 250.347 335.674 248.564 331.812C246.78 327.951 245.59 296.733 245.59 296.733C245.59 296.733 224.73 296.613 223.986 294.531C223.241 292.448 233.078 274.465 233.078 274.465L239.075 274.153L250.495 273.546C250.495 273.546 252.724 274.759 255.061 276.396C257.397 278.032 259.934 280.11 260.456 281.791C261.495 285.14 261.941 285.697 261.941 285.697L262.98 338.648Z" fill="#5F5570"/>
<path opacity="0.1" d="M259.729 341.778L259.479 344.779L250.503 343.887L250.86 341.859C252.443 342.238 257.103 343.17 258.753 341.992C259.062 341.86 259.393 341.788 259.729 341.778Z" fill="black"/>
<path d="M258.753 342.438C259.036 342.303 259.345 342.229 259.659 342.221C259.972 342.214 260.284 342.273 260.574 342.394C260.864 342.515 261.124 342.696 261.339 342.925C261.554 343.154 261.718 343.426 261.82 343.722C262.766 346.006 264.884 350.968 264.884 350.968C264.884 350.968 269.566 355.316 266.725 359.383C264.942 361.933 260.144 360.653 256.809 359.342C255.232 358.67 253.874 357.572 252.885 356.172C252.762 356.007 252.605 355.87 252.425 355.77C252.245 355.67 252.046 355.61 251.841 355.592C251.117 355.466 250.436 355.16 249.861 354.701C249.524 354.451 249.253 354.121 249.073 353.742C248.894 353.362 248.811 352.944 248.831 352.525L249.112 346.282C249.112 346.282 249.447 341.943 250.503 342.215C251.56 342.487 256.969 343.722 258.753 342.438Z" fill="#BC8487"/>
<path d="M235.704 222.491L226.701 232.033L226.452 232.3L226.126 232.109C224.244 230.994 214.831 225.313 215.638 223.605C216.084 222.633 216.347 220.609 216.486 218.865C216.486 218.656 216.512 218.451 216.53 218.25C216.619 216.872 216.642 215.802 216.642 215.802C216.642 215.802 233.586 212.904 232.917 215.802C232.645 216.975 233.051 218.295 233.626 219.45C233.795 219.784 233.983 220.101 234.166 220.399C234.616 221.14 235.131 221.84 235.704 222.491Z" fill="#FFC4D0"/>
<path opacity="0.1" d="M233.626 219.45C231.098 221.312 227.99 222.215 224.857 221.995C221.725 221.775 218.773 220.448 216.53 218.25C216.619 216.872 216.642 215.802 216.642 215.802C216.642 215.802 233.586 212.904 232.917 215.802C232.658 216.984 233.051 218.295 233.626 219.45Z" fill="black"/>
<path d="M239.008 208.351C239.057 211.783 237.77 215.1 235.419 217.601C233.068 220.102 229.837 221.591 226.409 221.755C222.98 221.918 219.622 220.742 217.044 218.476C214.466 216.209 212.87 213.03 212.593 209.608C212.557 209.192 212.539 208.773 212.539 208.351C212.507 206.593 212.825 204.847 213.476 203.214C214.126 201.581 215.095 200.094 216.327 198.839C217.558 197.585 219.027 196.589 220.648 195.909C222.269 195.228 224.009 194.878 225.767 194.878C227.525 194.878 229.265 195.228 230.886 195.909C232.507 196.589 233.976 197.585 235.207 198.839C236.439 200.094 237.408 201.581 238.058 203.214C238.709 204.847 239.027 206.593 238.995 208.351H239.008Z" fill="#FFC4D0"/>
<path d="M238.767 282.13L236.359 282.785L230.799 284.315C229.512 285.274 228.064 285.994 226.523 286.442C223.121 287.302 220.922 285.43 219.094 282.531C218.358 281.372 218.728 280.444 219.692 279.718C222.01 277.965 227.745 277.395 229.501 277.626C230.655 277.72 231.815 277.54 232.886 277.1C233.646 276.824 234.379 276.477 235.075 276.066L238.767 282.13Z" fill="#FFC4D0"/>
<path opacity="0.1" d="M238.767 282.13L236.359 282.785C235.668 280.703 234.531 278.09 232.904 277.087C233.664 276.81 234.397 276.464 235.093 276.052L238.767 282.13Z" fill="black"/>
<path opacity="0.1" d="M255.052 276.396C254.053 277.203 253.206 277.939 253.206 277.939C253.206 277.939 241.612 281.573 239.383 286.143C239.383 286.143 237.599 277.225 233.809 277.114C233.809 277.114 237.889 275.513 239.066 274.144L250.495 273.546C250.495 273.546 252.724 274.759 255.052 276.396Z" fill="black"/>
<path d="M254.878 241.441L257.442 245.232L258.222 257.048C258.222 257.048 258.445 268.418 258.222 268.864L258.445 268.418C258.445 268.418 257.999 272.878 256.661 273.658C255.324 274.438 252.314 277.047 252.314 277.047C252.314 277.047 240.72 280.681 238.491 285.251C238.491 285.251 236.707 276.333 232.917 276.222C232.917 276.222 238.602 273.992 238.491 272.543C238.491 272.543 242.838 268.641 243.173 267.638C243.507 266.635 245.679 266.523 245.679 266.523C245.679 266.523 246.183 259.612 245.179 258.497C244.176 257.382 243.619 255.264 243.619 255.264L254.878 241.441Z" fill="#EAEAF2"/>
<path opacity="0.1" d="M226.523 286.428C223.121 287.289 220.922 285.416 219.094 282.518C218.358 281.359 218.728 280.431 219.692 279.704L220.039 279.843C220.039 279.843 226.171 282.5 226.523 286.428Z" fill="black"/>
<path d="M225.114 289.991C221.101 295.565 213.632 287.815 213.074 286.255C212.874 285.688 212.111 285.184 211.233 284.779C210.118 284.292 208.962 283.908 207.777 283.633L214.412 278.228L215.683 278.737L219.594 280.302C219.594 280.302 229.127 284.417 225.114 289.991Z" fill="#FFC4D0"/>
<path opacity="0.1" d="M215.683 278.737C212.027 280.476 211.246 282.977 211.224 284.779C210.109 284.292 208.953 283.908 207.768 283.633L214.403 278.228L215.683 278.737Z" fill="black"/>
<path opacity="0.1" d="M209.842 288.373C209.842 288.373 199.14 279.9 194.012 276.222C193.37 275.765 192.773 275.248 192.229 274.679C193.745 273.725 194.877 273.1 194.877 273.1L208.067 273.636C208.419 274.246 208.629 274.661 208.629 274.661L215.763 279.343C207.166 282.13 209.842 288.373 209.842 288.373Z" fill="black"/>
<path d="M195.573 243.894L193.455 245.12C193.455 245.12 190.891 253.258 191.56 258.609C191.56 258.609 189.553 266.3 190.333 267.527C190.333 267.527 189.33 271.651 194.458 275.33C199.586 279.009 210.288 287.481 210.288 287.481C210.288 287.481 207.612 281.238 216.196 278.451L209.061 273.769C209.061 273.769 206.667 269.016 204.379 267.973C204.379 267.973 202.596 266.189 203.711 264.963C204.825 263.737 205.717 262.399 205.717 261.173C205.717 259.946 206.163 254.15 206.163 254.15L207.501 247.907L195.573 243.894Z" fill="#EAEAF2"/>
<path opacity="0.1" d="M228.012 238.597H223.665C223.638 238.572 223.614 238.545 223.593 238.516L223.665 238.151L224.222 236.706L227.959 238.151L228.012 238.597Z" fill="black"/>
<path d="M229.417 231.047C229.417 231.047 225.644 234.195 223.665 231.047C223.665 231.047 221.881 236.371 223.665 238.155H229.015C229.015 238.155 231.82 233.304 229.417 231.047Z" fill="#BC8487"/>
<path opacity="0.1" d="M234.518 220.707L240.136 222.156C240.136 222.156 234.812 235.979 233.639 235.979L226.897 232.746L234.518 220.707Z" fill="black"/>
<path opacity="0.1" d="M235.704 222.491L226.701 232.033L226.452 232.3L226.126 232.109L233.996 220.105L234.188 220.422C234.632 221.154 235.139 221.846 235.704 222.491Z" fill="black"/>
<path d="M234.072 220.261L239.69 221.71C239.69 221.71 234.366 235.533 233.194 235.533L226.452 232.3L234.072 220.261Z" fill="#EAEAF2"/>
<path opacity="0.1" d="M216.049 219.173L211.179 220.707C211.179 220.707 215.973 235.199 217.311 235.979L226.006 232.746L216.049 219.173Z" fill="black"/>
<path opacity="0.1" d="M226.701 232.033L226.451 232.3C226.451 232.3 214.747 225.5 215.638 223.605C216.084 222.633 216.347 220.609 216.486 218.865V218.593L226.701 232.033Z" fill="black"/>
<path d="M216.494 218.727L211.625 220.261C211.625 220.261 216.419 234.753 217.756 235.533L226.451 232.3L216.494 218.727Z" fill="#EAEAF2"/>
<path opacity="0.1" d="M204.897 242.4C204.897 242.4 207.831 242.922 207.777 245.967C207.724 249.013 208.985 242.03 208.985 242.03L204.897 242.4Z" fill="black"/>
<path opacity="0.1" d="M205.565 251.764C205.565 251.764 204.749 256.37 205.565 260.535C206.381 264.7 206.31 266.109 206.943 266.332C207.576 266.555 205.565 251.764 205.565 251.764Z" fill="black"/>
<path opacity="0.1" d="M243.021 251.318C242.787 251.348 242.562 251.428 242.363 251.554C242.163 251.68 241.994 251.849 241.866 252.047C241.739 252.246 241.656 252.47 241.625 252.704C241.593 252.937 241.613 253.175 241.684 253.401C242.058 255.264 243.021 251.318 243.021 251.318Z" fill="black"/>
<path opacity="0.1" d="M192.041 266.925C192.041 266.925 201.597 266.109 203.189 267.817C204.781 269.524 192.041 266.925 192.041 266.925Z" fill="black"/>
<path opacity="0.1" d="M247.48 267.571C247.48 267.571 254.468 266.711 256.104 267.901L247.48 267.571Z" fill="black"/>
<path opacity="0.1" d="M250.307 268.708C250.307 268.708 254.468 268.855 255.435 269.377L250.307 268.708Z" fill="black"/>
<path opacity="0.1" d="M251.123 270.202C251.123 270.202 254.913 270.055 255.435 270.648L251.123 270.202Z" fill="black"/>
<path opacity="0.1" d="M197.673 291.159C197.673 291.159 200.919 292.849 200.589 294.575C200.259 296.301 197.673 291.159 197.673 291.159Z" fill="black"/>
<path opacity="0.1" d="M194.864 291.98C194.864 291.98 199.818 298.405 199.144 300.523C198.471 302.641 194.864 291.98 194.864 291.98Z" fill="black"/>
<path opacity="0.1" d="M247.966 293.046C247.966 293.046 245.514 295.066 245.581 296.733L247.966 293.046Z" fill="black"/>
<path opacity="0.1" d="M191.337 332.851C191.337 332.851 191.337 334.746 194.846 337.533L191.337 332.851Z" fill="black"/>
<path opacity="0.1" d="M253.277 328.392C253.277 328.392 252.902 332.334 249.487 334.376L253.277 328.392Z" fill="black"/>
<g opacity="0.1">
<path d="M211.179 194.604C211.179 194.296 211.126 193.98 211.099 193.667C211.042 194.348 211.063 195.033 211.162 195.71C211.192 195.342 211.198 194.972 211.179 194.604Z" fill="black"/>
<path d="M210.47 207.062C210.537 205.769 209.414 204.73 209.088 203.495C209.071 203.435 209.06 203.374 209.052 203.312C208.951 203.815 208.963 204.335 209.088 204.833C209.351 205.854 210.145 206.728 210.395 207.718C210.417 207.486 210.461 207.276 210.47 207.062Z" fill="black"/>
</g>
<path opacity="0.1" d="M180.488 350.522C180.488 350.522 184.131 349.399 185.643 351.53L180.488 350.522Z" fill="black"/>
<path opacity="0.1" d="M264.884 350.968C264.884 350.968 258.851 350.616 259.087 352.248L264.884 350.968Z" fill="black"/>
<path opacity="0.1" d="M385.335 347.664C391.967 347.664 397.344 346.756 397.344 345.635C397.344 344.515 391.967 343.607 385.335 343.607C378.703 343.607 373.327 344.515 373.327 345.635C373.327 346.756 378.703 347.664 385.335 347.664Z" fill="#2CAEBA"/>
<path opacity="0.1" d="M40.6172 364.314C47.2492 364.314 52.6254 363.406 52.6254 362.285C52.6254 361.165 47.2492 360.257 40.6172 360.257C33.9853 360.257 28.6091 361.165 28.6091 362.285C28.6091 363.406 33.9853 364.314 40.6172 364.314Z" fill="#2CAEBA"/>
<path opacity="0.1" d="M87.0669 375.199C93.6988 375.199 99.075 374.29 99.075 373.17C99.075 372.049 93.6988 371.141 87.0669 371.141C80.435 371.141 75.0587 372.049 75.0587 373.17C75.0587 374.29 80.435 375.199 87.0669 375.199Z" fill="#2CAEBA"/>
<path d="M359.049 370.41C368.952 370.41 376.979 369.052 376.979 367.378C376.979 365.703 368.952 364.345 359.049 364.345C349.147 364.345 341.12 365.703 341.12 367.378C341.12 369.052 349.147 370.41 359.049 370.41Z" fill="#2CAEBA"/>
<path d="M366.465 362.419C367.282 361.751 367.877 360.851 368.173 359.837C368.396 358.816 367.959 357.608 366.978 357.211C365.881 356.792 364.708 357.554 363.821 358.321C362.933 359.088 361.912 359.967 360.748 359.802C361.347 359.26 361.796 358.572 362.05 357.806C362.304 357.039 362.355 356.22 362.198 355.427C362.145 355.099 362.005 354.791 361.792 354.536C361.185 353.885 360.08 354.161 359.353 354.678C357.034 356.306 356.387 359.458 356.374 362.29C356.138 361.269 356.338 360.203 356.329 359.169C356.321 358.134 356.04 356.939 355.152 356.391C354.605 356.097 353.99 355.952 353.369 355.971C352.325 355.931 351.166 356.038 350.452 356.801C349.561 357.746 349.801 359.334 350.568 360.368C351.335 361.403 352.508 362.067 353.587 362.785C354.45 363.299 355.187 364.002 355.741 364.84C355.808 364.958 355.862 365.082 355.901 365.211H362.416C363.885 364.466 365.247 363.527 366.465 362.419Z" fill="#2CAEBA"/>
<path d="M87.6867 323.309C87.6867 323.309 90.1392 326.515 86.5586 331.335C82.978 336.156 80.0261 340.253 81.2077 343.272C81.2077 343.272 86.6121 334.287 91.0176 334.162C95.4231 334.037 92.5247 328.713 87.6867 323.309Z" fill="#2CAEBA"/>
<path opacity="0.1" d="M87.6867 323.309C87.9005 323.619 88.0687 323.959 88.1861 324.317C92.4757 329.356 94.7632 334.06 90.6386 334.176C86.7994 334.287 82.1932 341.154 81.0873 342.889C81.123 343.022 81.1676 343.152 81.2167 343.286C81.2167 343.286 86.621 334.301 91.0265 334.176C95.432 334.051 92.5247 328.713 87.6867 323.309Z" fill="black"/>
<path d="M92.2394 327.394C92.2394 328.522 92.1145 329.436 91.9584 329.436C91.8024 329.436 91.6775 328.522 91.6775 327.394C91.6775 326.265 91.8336 326.796 91.9897 326.796C92.1457 326.796 92.2394 326.265 92.2394 327.394Z" fill="#FFD037"/>
<path d="M93.8045 328.74C92.8146 329.28 91.9495 329.605 91.8782 329.467C91.8068 329.329 92.5426 328.78 93.5325 328.241C94.5224 327.701 94.1345 328.094 94.2058 328.241C94.2771 328.388 94.7944 328.201 93.8045 328.74Z" fill="#FFD037"/>
<path d="M74.7511 323.309C74.7511 323.309 72.2986 326.515 75.8792 331.335C79.4598 336.156 82.4117 340.253 81.23 343.272C81.23 343.272 75.8302 334.287 71.4202 334.162C67.0102 334.037 69.9041 328.713 74.7511 323.309Z" fill="#2CAEBA"/>
<path opacity="0.1" d="M74.7511 323.309C74.5366 323.62 74.3669 323.959 74.2472 324.317C69.9576 329.356 67.6746 334.06 71.7947 334.176C75.6384 334.287 80.2446 341.154 81.3504 342.889C81.3139 343.024 81.2692 343.156 81.2167 343.286C81.2167 343.286 75.8168 334.301 71.4068 334.176C66.9968 334.051 69.9041 328.713 74.7511 323.309Z" fill="black"/>
<path d="M70.1938 327.394C70.1938 328.522 70.3232 329.436 70.4792 329.436C70.6353 329.436 70.7601 328.522 70.7601 327.394C70.7601 326.265 70.6041 326.796 70.448 326.796C70.2919 326.796 70.1938 326.265 70.1938 327.394Z" fill="#FFD037"/>
<path d="M68.6333 328.74C69.6232 329.28 70.4838 329.605 70.5596 329.467C70.6354 329.329 69.8907 328.78 68.9008 328.241C67.9109 327.701 68.3033 328.094 68.2275 328.241C68.1517 328.388 67.6434 328.201 68.6333 328.74Z" fill="#FFD037"/>
<path d="M70.9742 342.866C70.9742 342.866 77.8233 342.652 79.8923 341.185C81.9613 339.718 90.4289 337.957 90.9372 340.316C91.4456 342.675 101.233 352.039 93.5012 352.101C85.7692 352.163 75.5313 350.897 73.4712 349.644C71.4112 348.391 70.9742 342.866 70.9742 342.866Z" fill="#A8A8A8"/>
<path opacity="0.2" d="M93.6349 351.281C85.903 351.343 75.6651 350.077 73.605 348.824C72.0399 347.865 71.4112 344.436 71.2016 342.857H70.9742C70.9742 342.857 71.4202 348.378 73.4669 349.635C75.5136 350.893 85.7648 352.154 93.4967 352.092C95.7262 352.092 96.4977 351.281 96.4576 350.103C96.1455 350.826 95.2937 351.267 93.6349 351.281Z" fill="black"/>
</g>
</svg>
