<svg width="1010" height="840" viewBox="0 0 1010 840" fill="none" xmlns="http://www.w3.org/2000/svg">
<g clip-path="url(#clip0_1_2)">
<path opacity="0.1" d="M586.554 111.402C521.834 109.152 460.194 88.262 401.334 65.402C342.474 42.542 284.174 17.212 221.004 5.10197C180.374 -2.68803 133.904 -3.78803 101.174 17.992C69.6641 38.992 59.4841 75.142 54.0141 108.722C49.8941 133.982 47.4741 160.572 58.7541 184.212C66.5941 200.632 80.4941 214.432 90.1141 230.162C123.584 284.882 99.9241 352.362 63.6641 405.792C46.6641 430.862 26.9141 454.792 13.7841 481.452C0.654109 508.112 -5.41589 538.702 6.07411 565.922C17.4541 592.922 44.5841 613.162 73.9741 627.412C133.664 656.362 203.974 664.642 272.584 669.332C424.414 679.722 577.044 675.222 729.274 670.722C785.614 669.052 842.194 667.362 897.614 658.652C928.394 653.812 960.164 646.142 982.514 627.602C1010.87 604.072 1017.9 564.232 998.894 534.722C967.014 485.232 878.894 472.942 856.584 419.832C844.324 390.592 856.914 358.032 874.744 330.912C912.984 272.752 977.074 221.722 980.444 155.242C982.764 109.582 951.954 63.852 904.314 42.242C854.384 19.602 785.134 22.442 748.314 59.932C710.364 98.532 643.704 113.382 586.554 111.402Z" fill="#2CAEBA"/>
<path opacity="0.1" d="M483.49 822.11C651.368 822.11 787.46 803.7 787.46 780.99C787.46 758.28 651.368 739.87 483.49 739.87C315.612 739.87 179.52 758.28 179.52 780.99C179.52 803.7 315.612 822.11 483.49 822.11Z" fill="#2CAEBA"/>
<path d="M333.01 658.57C333.01 658.57 354.01 655.21 366.61 670.05C366.61 670.05 357.37 677.33 337.49 667.25L333.01 658.57Z" fill="#2CAEBA"/>
<path d="M330.77 658.24C330.77 658.24 317.37 674.82 323.94 693.09C323.94 693.09 334.86 688.72 336.05 666.46L330.77 658.24Z" fill="#2CAEBA"/>
<path d="M318.77 631.13C318.77 631.13 327.17 615.73 360.77 637.29C360.77 637.29 356.29 647.65 341.45 646.81C326.61 645.97 322.64 639.25 318.77 631.13Z" fill="#2CAEBA"/>
<path d="M316.56 630.02C316.56 630.02 299.13 628.02 297.44 667.92C297.44 667.92 308.49 670.22 316.34 657.59C324.19 644.96 320.94 637.9 316.56 630.02Z" fill="#2CAEBA"/>
<path d="M306.4 598.2C306.4 598.2 316.2 571.03 351.77 590.35C351.77 590.35 343.65 615.28 310.04 607.44L306.4 598.2Z" fill="#2CAEBA"/>
<path d="M295.48 557.59C295.48 557.59 313.96 530.15 346.73 555.59C346.73 555.59 335.25 581.35 298.28 567.35L295.48 557.59Z" fill="#2CAEBA"/>
<path d="M291.56 518.95C291.56 518.95 313.12 493.75 345.56 518.95C345.56 518.95 325.11 541.07 291.56 525.39V518.95Z" fill="#2CAEBA"/>
<path d="M288.2 481.43C288.2 481.43 310.04 455.1 341.13 480.03C341.13 480.03 316.48 503.27 288.2 487.59V481.43Z" fill="#2CAEBA"/>
<path d="M290.16 448.1C290.16 448.1 313.16 414.22 342.25 437.18C342.25 437.18 317.6 466.31 290.16 454.54V448.1Z" fill="#2CAEBA"/>
<path d="M295.48 409.18C295.48 409.18 319.84 375.58 348.13 401.34C348.13 401.34 319.28 430.46 295.48 415.34V409.18Z" fill="#2CAEBA"/>
<path d="M303.61 374.39C303.61 374.39 332.44 342.82 357.61 355.39C357.61 355.39 327.55 388.92 302.35 382.76L303.61 374.39Z" fill="#2CAEBA"/>
<path d="M313.68 341.42C313.68 341.42 347.01 302.77 366.33 315.65C366.33 315.65 341.81 345.65 311.33 348.7L313.68 341.42Z" fill="#2CAEBA"/>
<path d="M328.23 303.16C328.23 303.16 357.37 271.58 378.65 279.42C378.65 279.42 353.73 312.19 324.32 313.03L328.23 303.16Z" fill="#2CAEBA"/>
<path d="M341.41 267.38C341.41 267.38 373.61 237.14 387.61 242.46C387.61 242.46 364.37 276.06 340.01 274.1L341.41 267.38Z" fill="#2CAEBA"/>
<path d="M354.29 234.34C354.29 234.34 382.01 198.22 397.13 201.02C397.13 201.02 380.33 233.22 354.29 238.02V234.34Z" fill="#2CAEBA"/>
<path d="M368.26 189.82C368.26 189.82 392.77 162.12 406 162.19C406 162.19 386.66 199.19 367.26 198.85L368.26 189.82Z" fill="#2CAEBA"/>
<path d="M376.55 160.13L400.21 102.45C400.21 102.45 401.4 154.59 373.53 170.83L376.55 160.13Z" fill="#2CAEBA"/>
<path d="M386.15 96.52C386.15 96.52 390.07 48.36 387.55 44.44C387.55 44.44 404.48 84.44 385.99 117.8L386.15 96.52Z" fill="#2CAEBA"/>
<path d="M305.49 597.55C305.49 597.55 280.94 582.34 265.06 619.55C265.06 619.55 286.9 634.05 308.37 607.04L305.49 597.55Z" fill="#2CAEBA"/>
<path d="M294.7 556.04C294.7 556.04 264.6 542.31 249.99 581.16C249.99 581.16 273.25 597.16 297.44 565.86L294.7 556.04Z" fill="#2CAEBA"/>
<path d="M290.16 521.26C290.16 521.26 268.6 496.06 236.16 521.26C236.16 521.26 256.6 543.38 290.16 527.7V521.26Z" fill="#2CAEBA"/>
<path d="M287.47 481.43C287.47 481.43 265.62 455.1 234.54 480.03C234.54 480.03 259.18 503.27 287.47 487.59V481.43Z" fill="#2CAEBA"/>
<path d="M290.16 449.06C290.16 449.06 274.84 411.11 241.54 427.43C241.54 427.43 259.54 461.09 288.81 455.36L290.16 449.06Z" fill="#2CAEBA"/>
<path d="M297.41 408.99C297.41 408.99 282.19 370.38 248.41 388.28C248.41 388.28 269.09 423.67 295.91 414.96L297.41 408.99Z" fill="#2CAEBA"/>
<path d="M306.85 374.59C306.85 374.59 300.85 332.25 272.9 328.46C272.9 328.46 278.83 373.1 303.12 382.21L306.85 374.59Z" fill="#2CAEBA"/>
<path d="M314.4 341.49C314.4 341.49 312.05 290.49 288.9 288.72C288.9 288.72 289.68 327.42 311.79 348.72L314.4 341.49Z" fill="#2CAEBA"/>
<path d="M330.64 301.7C330.64 301.7 323.73 259.3 301.64 254.11C301.64 254.11 304.38 295.18 328.45 312.11L330.64 301.7Z" fill="#2CAEBA"/>
<path d="M344.03 267.69C344.03 267.69 343.79 223.51 330.29 217.02C330.29 217.02 321.92 257.02 340.12 273.33L344.03 267.69Z" fill="#2CAEBA"/>
<path d="M355.32 233.82C355.32 233.82 353.42 188.32 339.45 181.91C339.45 181.91 334.66 217.91 353.22 236.79L355.32 233.82Z" fill="#2CAEBA"/>
<path d="M370.22 193.42C370.22 193.42 370.13 156.42 360.15 147.74C360.15 147.74 350.23 188.28 365.01 200.86L370.22 193.42Z" fill="#2CAEBA"/>
<path d="M375.37 158.31L365.67 96.72C365.67 96.72 352.47 147.19 375.83 169.42L375.37 158.31Z" fill="#2CAEBA"/>
<path d="M377.27 97.1C377.27 97.1 352.34 55.71 352.86 51.1C352.86 51.1 355.5 94.5 386.86 116.1L377.27 97.1Z" fill="#2CAEBA"/>
<path d="M380.19 84.88C380.19 84.88 356.67 26.07 346.03 21.31C346.03 21.31 379.63 38.39 382.15 83.2L380.19 84.88Z" fill="#2CAEBA"/>
<path d="M367.13 199.17L365.52 198.68C385.37 133.95 390.33 92.68 379.47 82.34L380.63 81.12C392.13 92.03 387.47 132.82 367.13 199.17Z" fill="#444053"/>
<path d="M312.47 350.69L310.1 349.85C312.2 343.92 314.47 337.9 316.85 331.96C337.57 280.32 355.21 232.29 366.52 195.41L368.59 194.41C357.26 231.36 339.94 281.24 319.19 332.94C316.82 338.82 314.56 344.82 312.47 350.69Z" fill="#444053"/>
<path d="M362.56 707.02C362.24 706.66 330.06 670.44 307.64 608.58C294.493 572.376 287.169 534.317 285.94 495.82C284.4 447.69 294.5 393.95 311.8 345.14L313.68 347.34C274.85 456.9 290.28 550.79 310.74 607.34C332.94 668.63 364.74 704.47 365.06 704.82L362.56 707.02Z" fill="#444053"/>
<path d="M649.37 289.82H645.09C643.825 289.82 642.8 290.845 642.8 292.11V360.55C642.8 361.815 643.825 362.84 645.09 362.84H649.37C650.635 362.84 651.66 361.815 651.66 360.55V292.11C651.66 290.845 650.635 289.82 649.37 289.82Z" fill="#3A3768"/>
<path d="M351.05 232.61H350.66C349.395 232.61 348.37 233.635 348.37 234.9V254.36C348.37 255.625 349.395 256.65 350.66 256.65H351.05C352.315 256.65 353.34 255.625 353.34 254.36V234.9C353.34 233.635 352.315 232.61 351.05 232.61Z" fill="#3A3768"/>
<path d="M351.5 276.63H350.48C349.215 276.63 348.19 277.655 348.19 278.92V316.18C348.19 317.445 349.215 318.47 350.48 318.47H351.5C352.765 318.47 353.79 317.445 353.79 316.18V278.92C353.79 277.655 352.765 276.63 351.5 276.63Z" fill="#3A3768"/>
<path d="M351.32 333.11H350.57C349.305 333.11 348.28 334.135 348.28 335.4V373.02C348.28 374.285 349.305 375.31 350.57 375.31H351.32C352.585 375.31 353.61 374.285 353.61 373.02V335.4C353.61 334.135 352.585 333.11 351.32 333.11Z" fill="#3A3768"/>
<path d="M608.59 153.17H390.17C368.636 153.17 351.18 170.626 351.18 192.16V716.57C351.18 738.104 368.636 755.56 390.17 755.56H608.59C630.124 755.56 647.58 738.104 647.58 716.57V192.16C647.58 170.626 630.124 153.17 608.59 153.17Z" fill="#3A3768"/>
<path d="M605.77 168.82H571.77V172.91C571.77 175.456 571.268 177.977 570.294 180.329C569.319 182.681 567.891 184.818 566.09 186.617C564.29 188.417 562.152 189.844 559.799 190.818C557.447 191.791 554.926 192.291 552.38 192.29H444.25C441.704 192.291 439.183 191.791 436.831 190.818C434.478 189.844 432.34 188.417 430.54 186.617C428.739 184.818 427.311 182.681 426.336 180.329C425.362 177.977 424.86 175.456 424.86 172.91V168.82H393.03C386.787 168.82 380.799 171.3 376.385 175.715C371.97 180.129 369.49 186.117 369.49 192.36V716.33C369.49 722.573 371.97 728.561 376.385 732.975C380.799 737.39 386.787 739.87 393.03 739.87H605.77C612.013 739.87 618.001 737.39 622.415 732.975C626.83 728.561 629.31 722.573 629.31 716.33V192.4C629.315 189.305 628.71 186.24 627.53 183.379C626.349 180.519 624.616 177.919 622.429 175.729C620.243 173.539 617.646 171.801 614.788 170.616C611.929 169.43 608.865 168.82 605.77 168.82Z" fill="#2CAEBA"/>
<path d="M508.31 171.16H474.66C472.523 171.16 470.79 172.893 470.79 175.03V175.69C470.79 177.827 472.523 179.56 474.66 179.56H508.31C510.447 179.56 512.18 177.827 512.18 175.69V175.03C512.18 172.893 510.447 171.16 508.31 171.16Z" fill="#E6E8EC"/>
<path d="M523.21 180.13C525.844 180.13 527.98 177.994 527.98 175.36C527.98 172.726 525.844 170.59 523.21 170.59C520.576 170.59 518.44 172.726 518.44 175.36C518.44 177.994 520.576 180.13 523.21 180.13Z" fill="#E6E8EC"/>
<path d="M750.2 126.75C750.2 126.75 666 121.67 675.92 180.67C675.92 180.67 673.92 191.1 683.4 195.83C683.4 195.83 683.55 191.46 692.04 192.95C695.063 193.451 698.133 193.599 701.19 193.39C705.314 193.119 709.237 191.515 712.37 188.82C712.37 188.82 736.04 179.04 745.24 140.36C745.24 140.36 752.05 131.92 751.78 129.75L737.57 135.82C737.57 135.82 742.43 146.07 738.57 154.59C738.57 154.59 738.11 136.19 735.38 136.59C734.83 136.67 728 140.14 728 140.14C728 140.14 736.35 157.99 730.05 170.97C730.05 170.97 732.44 148.97 725.39 141.43L715.39 147.27C715.39 147.27 725.15 165.71 718.53 180.76C718.53 180.76 720.23 157.68 713.28 148.69L704.22 155.76C704.22 155.76 713.39 173.93 707.8 186.41C707.8 186.41 707.07 159.55 702.26 157.52C702.26 157.52 694.33 164.52 693.12 167.38C693.12 167.38 699.4 180.58 695.5 187.54C695.5 187.54 693.11 169.64 691.15 169.54C691.15 169.54 683.25 181.4 682.43 189.54C682.43 189.54 682.77 177.45 689.24 168.42C689.24 168.42 681.6 169.73 677.14 174.68C677.14 174.68 678.37 166.3 691.19 165.56C691.19 165.56 697.72 156.56 699.46 156.02C699.46 156.02 686.72 154.95 678.99 158.38C678.99 158.38 685.79 150.47 701.8 154.07L710.75 146.76C710.75 146.76 693.97 144.47 686.85 147C686.85 147 695.04 140 713.16 145.1L722.9 139.28C722.9 139.28 708.59 136.2 700.07 137.28C700.07 137.28 709.07 132.43 725.76 137.69L732.76 134.56C732.76 134.56 722.28 132.5 719.21 132.17C716.14 131.84 715.98 131 715.98 131C722.62 129.893 729.436 130.651 735.67 133.19C735.67 133.19 750.45 127.68 750.2 126.75Z" fill="#2CAEBA"/>
<path d="M663.83 100.51C663.83 100.51 625.83 98.22 630.27 124.88C630.27 124.88 629.38 129.59 633.65 131.73C633.65 131.73 633.72 129.73 637.56 130.42C638.924 130.65 640.31 130.717 641.69 130.62C643.555 130.497 645.329 129.766 646.74 128.54C646.74 128.54 657.44 124.12 661.6 106.64C661.6 106.64 664.67 102.83 664.55 101.85L658.13 104.59C658.13 104.59 660.32 109.22 658.6 113.07C658.6 113.07 658.39 104.76 657.16 104.95C656.91 104.95 653.82 106.56 653.82 106.56C653.82 106.56 657.6 114.63 654.75 120.49C654.75 120.49 655.83 110.55 652.64 107.14L648.12 109.82C648.12 109.82 652.53 118.15 649.54 124.95C649.54 124.95 650.31 114.52 647.17 110.46L643.08 113.66C643.08 113.66 647.22 121.87 644.7 127.51C644.7 127.51 644.36 115.37 642.19 114.45C642.19 114.45 638.61 117.61 638.06 118.91C638.06 118.91 640.9 124.91 639.14 128.02C639.14 128.02 638.06 119.93 637.14 119.89C637.14 119.89 633.57 125.25 633.2 128.89C633.379 125.496 634.44 122.208 636.28 119.35C634.22 119.74 632.319 120.724 630.81 122.18C630.81 122.18 631.37 118.39 637.16 118.06C637.16 118.06 640.16 113.99 640.9 113.74C640.9 113.74 635.14 113.26 631.65 114.81C631.65 114.81 634.72 111.24 641.95 112.86L645.95 109.56C645.95 109.56 638.36 108.56 635.15 109.67C635.15 109.67 638.85 106.51 647.04 108.81L651.44 106.18C651.44 106.18 644.97 104.79 641.12 105.29C641.12 105.29 645.19 103.1 652.73 105.47L655.88 104.06C655.88 104.06 651.14 103.13 649.75 102.98C648.36 102.83 648.29 102.45 648.29 102.45C651.292 101.951 654.374 102.297 657.19 103.45C657.19 103.45 663.95 100.93 663.83 100.51Z" fill="#2CAEBA"/>
<path opacity="0.1" d="M602.86 226.18H395.91V665.42H602.86V226.18Z" fill="black"/>
<path d="M436.96 768.43L416.85 770.43L416.29 763.7L415.9 759.07L415.35 752.3L434.35 753.3L435.86 761.99L436.18 763.88H436.19L436.96 768.43Z" fill="#8E6F7F"/>
<path d="M583.41 753.31L582.86 760.07L582.48 764.7L581.91 771.43L561.79 769.43L562.59 764.88L562.9 763L564.41 754.31L583.41 753.31Z" fill="#8E6F7F"/>
<path d="M562.1 655.92L502.3 658.73C499.58 658.863 496.86 658.863 494.14 658.73L437.01 655.93V610.67H562.1V655.92Z" fill="#5F5570"/>
<path opacity="0.1" d="M562.1 655.92L502.3 658.73C499.58 658.863 496.86 658.863 494.14 658.73L437.01 655.93V610.67H562.1V655.92Z" fill="black"/>
<path d="M485.52 488.73C485.52 488.73 465.6 495.42 458.1 500.92C456.54 502.06 455.1 503 453.84 503.77C449.208 506.626 445.663 510.948 443.77 516.05C443.72 516.19 443.67 516.31 443.62 516.42C442.62 518.67 437.87 533.92 437.87 533.92C437.87 533.92 434.37 542.42 433.87 547.92C433.37 553.42 462.37 568.17 462.37 568.17C462.37 568.17 448.37 598.67 454.62 606.42C460.87 614.17 552.12 617.92 550.12 606.42C548.12 594.92 544.62 575.92 546.37 570.67L577.37 548.17C577.37 548.17 576.12 516.67 566.37 508.42C556.62 500.17 544.37 497.17 544.37 497.17L524.96 492.17C524.96 492.17 518.12 509.17 510.62 511.42C503.12 513.67 486.69 503.28 485.52 488.73Z" fill="#EAEAF2"/>
<path opacity="0.1" d="M435.86 761.98C431.545 761.952 427.242 761.514 423.01 760.67C420.92 760.15 418.3 759.57 415.91 759.06L415.35 752.29L434.35 753.29L435.86 761.98Z" fill="black"/>
<path d="M499.25 658.82C497.59 663.49 448.01 662.67 448.01 662.67C448.01 662.67 445.35 732.67 441.35 741.34C437.35 750.01 437.01 761 437.01 761C437.01 761 428.35 761 423.01 759.67C417.67 758.34 409.01 756.67 409.01 756.67L411.35 637.92C411.35 637.92 412.35 636.67 414.68 629.16C416.18 624.33 424.98 618.07 431.07 614.16C434.47 612.02 437.01 610.62 437.01 610.62L466.59 611.82L484.85 612.56C484.85 612.56 500.92 654.15 499.25 658.82Z" fill="#5F5570"/>
<path opacity="0.1" d="M436.97 768.42L416.85 770.42L416.28 763.69C417.034 763.711 417.777 763.874 418.47 764.17C422.14 766.81 432.63 764.71 436.18 763.87L436.97 768.42Z" fill="black"/>
<path d="M440.77 787.87C440.794 788.819 440.587 789.76 440.167 790.612C439.747 791.463 439.127 792.201 438.36 792.76C437.094 793.753 435.598 794.41 434.01 794.67C433.552 794.709 433.107 794.846 432.705 795.07C432.304 795.294 431.954 795.601 431.68 795.97C429.457 799.105 426.412 801.565 422.88 803.08C415.95 805.8 406.2 808.47 401.63 804.3C401.253 803.965 400.917 803.585 400.63 803.17C394.26 794.05 404.76 784.29 404.76 784.29C404.76 784.29 409.5 773.17 411.63 768.05C411.86 767.386 412.228 766.778 412.709 766.265C413.19 765.752 413.773 765.347 414.422 765.075C415.07 764.803 415.768 764.671 416.471 764.688C417.174 764.704 417.865 764.868 418.5 765.17C422.5 768.05 434.63 765.29 437 764.68C439.37 764.07 440.13 773.79 440.13 773.79L440.77 787.72C440.765 787.77 440.765 787.82 440.77 787.87Z" fill="#BC8487"/>
<path opacity="0.1" d="M583.42 753.3L582.86 760.06C580.47 760.57 577.86 761.15 575.75 761.67C571.521 762.515 567.222 762.957 562.91 762.99L564.42 754.3L583.42 753.3Z" fill="black"/>
<path d="M589.77 757.67C589.77 757.67 581.11 759.34 575.77 760.67C570.43 762 561.77 762 561.77 762C561.77 762 561.44 751 557.44 742.34C553.44 733.68 550.77 663.67 550.77 663.67C550.77 663.67 503.99 663.4 502.32 658.73C500.65 654.06 522.71 613.73 522.71 613.73L536.16 613.03L561.77 611.67C561.77 611.67 566.77 614.39 572.01 618.06C577.25 621.73 582.94 626.39 584.11 630.16C586.44 637.67 587.44 638.92 587.44 638.92L589.77 757.67Z" fill="#5F5570"/>
<path opacity="0.1" d="M582.48 764.69L581.92 771.42L561.79 769.42L562.59 764.87C566.14 765.72 576.59 767.81 580.29 765.17C580.983 764.874 581.726 764.711 582.48 764.69Z" fill="black"/>
<path d="M580.29 766.17C580.925 765.867 581.618 765.701 582.322 765.684C583.026 765.667 583.725 765.798 584.375 766.07C585.024 766.342 585.609 766.748 586.091 767.261C586.572 767.775 586.94 768.384 587.17 769.05C589.29 774.17 594.04 785.3 594.04 785.3C594.04 785.3 604.54 795.05 598.17 804.17C594.17 809.89 583.41 807.02 575.93 804.08C572.394 802.571 569.348 800.11 567.13 796.97C566.854 796.6 566.503 796.293 566.1 796.069C565.696 795.845 565.25 795.709 564.79 795.67C563.165 795.387 561.638 794.699 560.35 793.67C559.593 793.11 558.986 792.371 558.583 791.52C558.18 790.668 557.994 789.731 558.04 788.79L558.67 774.79C558.67 774.79 559.42 765.06 561.79 765.67C564.16 766.28 576.29 769.05 580.29 766.17Z" fill="#BC8487"/>
<path d="M528.6 497.17L508.41 518.57L507.85 519.17L507.12 518.74C502.9 516.24 481.79 503.5 483.6 499.67C484.6 497.49 485.19 492.95 485.5 489.04C485.5 488.57 485.56 488.11 485.6 487.66C485.8 484.57 485.85 482.17 485.85 482.17C485.85 482.17 523.85 475.67 522.35 482.17C521.74 484.8 522.65 487.76 523.94 490.35C524.32 491.1 524.74 491.81 525.15 492.48C526.16 494.142 527.314 495.711 528.6 497.17Z" fill="#FFC4D0"/>
<path opacity="0.1" d="M523.94 490.35C518.271 494.528 511.3 496.551 504.275 496.058C497.25 495.565 490.63 492.588 485.6 487.66C485.8 484.57 485.85 482.17 485.85 482.17C485.85 482.17 523.85 475.67 522.35 482.17C521.77 484.82 522.65 487.76 523.94 490.35Z" fill="black"/>
<path d="M536.01 465.46C536.12 473.157 533.234 480.596 527.961 486.204C522.689 491.813 515.443 495.153 507.754 495.519C500.065 495.885 492.534 493.249 486.753 488.166C480.971 483.083 477.392 475.953 476.77 468.28C476.69 467.347 476.65 466.407 476.65 465.46C476.578 461.519 477.291 457.602 478.75 453.94C480.208 450.277 482.382 446.942 485.143 444.129C487.905 441.316 491.2 439.082 494.835 437.556C498.47 436.031 502.373 435.245 506.315 435.245C510.257 435.245 514.16 436.031 517.795 437.556C521.43 439.082 524.725 441.316 527.487 444.129C530.248 446.942 532.422 450.277 533.88 453.94C535.339 457.602 536.052 461.519 535.98 465.46H536.01Z" fill="#FFC4D0"/>
<path d="M535.47 630.92L530.07 632.39L517.6 635.82C514.714 637.97 511.466 639.586 508.01 640.59C500.38 642.52 495.45 638.32 491.35 631.82C489.7 629.22 490.53 627.14 492.69 625.51C497.89 621.58 510.75 620.3 514.69 620.82C517.278 621.031 519.878 620.626 522.28 619.64C523.985 619.02 525.628 618.243 527.19 617.32L535.47 630.92Z" fill="#FFC4D0"/>
<path opacity="0.1" d="M535.47 630.92L530.07 632.39C528.52 627.72 525.97 621.86 522.32 619.61C524.025 618.99 525.668 618.213 527.23 617.29L535.47 630.92Z" fill="black"/>
<path opacity="0.1" d="M571.99 618.06C569.75 619.87 567.85 621.52 567.85 621.52C567.85 621.52 541.85 629.67 536.85 639.92C536.85 639.92 532.85 619.92 524.35 619.67C524.35 619.67 533.5 616.08 536.14 613.01L561.77 611.67C561.77 611.67 566.77 614.39 571.99 618.06Z" fill="black"/>
<path d="M571.6 539.67L577.35 548.17L579.1 574.67C579.1 574.67 579.6 600.17 579.1 601.17L579.6 600.17C579.6 600.17 578.6 610.17 575.6 611.92C572.6 613.67 565.85 619.52 565.85 619.52C565.85 619.52 539.85 627.67 534.85 637.92C534.85 637.92 530.85 617.92 522.35 617.67C522.35 617.67 535.1 612.67 534.85 609.42C534.85 609.42 544.6 600.67 545.35 598.42C546.1 596.17 550.97 595.92 550.97 595.92C550.97 595.92 552.1 580.42 549.85 577.92C547.6 575.42 546.35 570.67 546.35 570.67L571.6 539.67Z" fill="#EAEAF2"/>
<path opacity="0.1" d="M508.01 640.56C500.38 642.49 495.45 638.29 491.35 631.79C489.7 629.19 490.53 627.11 492.69 625.48L493.47 625.79C493.47 625.79 507.22 631.75 508.01 640.56Z" fill="black"/>
<path d="M504.85 648.55C495.85 661.05 479.1 643.67 477.85 640.17C477.4 638.9 475.69 637.77 473.72 636.86C471.221 635.768 468.627 634.908 465.97 634.29L480.85 622.17L483.7 623.31L492.47 626.82C492.47 626.82 513.85 636.05 504.85 648.55Z" fill="#FFC4D0"/>
<path opacity="0.1" d="M483.7 623.31C475.5 627.21 473.75 632.82 473.7 636.86C471.201 635.768 468.606 634.908 465.95 634.29L480.83 622.17L483.7 623.31Z" fill="black"/>
<path opacity="0.1" d="M470.6 644.92C470.6 644.92 446.6 625.92 435.1 617.67C433.661 616.645 432.322 615.486 431.1 614.21C434.5 612.07 437.04 610.67 437.04 610.67L466.62 611.87C467.41 613.24 467.88 614.17 467.88 614.17L483.88 624.67C464.6 630.92 470.6 644.92 470.6 644.92Z" fill="black"/>
<path d="M438.6 545.17L433.85 547.92C433.85 547.92 428.1 566.17 429.6 578.17C429.6 578.17 425.1 595.42 426.85 598.17C426.85 598.17 424.6 607.42 436.1 615.67C447.6 623.92 471.6 642.92 471.6 642.92C471.6 642.92 465.6 628.92 484.85 622.67L468.85 612.17C468.85 612.17 463.48 601.51 458.35 599.17C458.35 599.17 454.35 595.17 456.85 592.42C459.35 589.67 461.35 586.67 461.35 583.92C461.35 581.17 462.35 568.17 462.35 568.17L465.35 554.17L438.6 545.17Z" fill="#EAEAF2"/>
<path opacity="0.1" d="M511.35 533.29H501.6C501.541 533.235 501.488 533.175 501.44 533.11L501.6 532.29L502.85 529.05L511.23 532.29L511.35 533.29Z" fill="black"/>
<path opacity="0.1" d="M525.94 493.17L538.54 496.42C538.54 496.42 526.6 527.42 523.97 527.42L508.85 520.17L525.94 493.17Z" fill="black"/>
<path opacity="0.1" d="M528.6 497.17L508.41 518.57L507.85 519.17L507.12 518.74L524.77 491.82L525.2 492.53C526.196 494.173 527.334 495.725 528.6 497.17Z" fill="black"/>
<path d="M524.94 492.17L537.54 495.42C537.54 495.42 525.6 526.42 522.97 526.42L507.85 519.17L524.94 492.17Z" fill="#EAEAF2"/>
<path opacity="0.1" d="M484.52 489.73L473.6 493.17C473.6 493.17 484.35 525.67 487.35 527.42L506.85 520.17L484.52 489.73Z" fill="black"/>
<path opacity="0.1" d="M508.41 518.57L507.85 519.17C507.85 519.17 481.6 503.92 483.6 499.67C484.6 497.49 485.19 492.95 485.5 489.04V488.43L508.41 518.57Z" fill="black"/>
<path d="M485.52 488.73L474.6 492.17C474.6 492.17 485.35 524.67 488.35 526.42L507.85 519.17L485.52 488.73Z" fill="#EAEAF2"/>
<path opacity="0.1" d="M459.51 541.82C459.51 541.82 466.09 542.99 465.97 549.82C465.85 556.65 468.68 540.99 468.68 540.99L459.51 541.82Z" fill="black"/>
<path opacity="0.1" d="M461.01 562.82C461.01 562.82 459.18 573.15 461.01 582.49C462.84 591.83 462.68 594.99 464.1 595.49C465.52 595.99 461.01 562.82 461.01 562.82Z" fill="black"/>
<path opacity="0.1" d="M545.01 561.82C544.485 561.887 543.981 562.067 543.534 562.35C543.086 562.632 542.706 563.009 542.42 563.455C542.134 563.9 541.949 564.402 541.878 564.927C541.807 565.451 541.852 565.985 542.01 566.49C542.85 570.67 545.01 561.82 545.01 561.82Z" fill="black"/>
<path opacity="0.1" d="M430.68 596.82C430.68 596.82 452.11 594.99 455.68 598.82C459.25 602.65 430.68 596.82 430.68 596.82Z" fill="black"/>
<path opacity="0.1" d="M555.01 598.27C555.01 598.27 570.68 596.34 574.35 599.01Z" fill="black"/>
<path opacity="0.1" d="M561.35 600.82C561.35 600.82 570.68 601.15 572.85 602.32Z" fill="black"/>
<path opacity="0.1" d="M563.18 604.17C563.18 604.17 571.68 603.84 572.85 605.17Z" fill="black"/>
<path opacity="0.1" d="M443.31 651.17C443.31 651.17 450.59 654.96 449.85 658.83C449.11 662.7 443.31 651.17 443.31 651.17Z" fill="black"/>
<path opacity="0.1" d="M437.01 653.01C437.01 653.01 448.12 667.42 446.61 672.17C445.1 676.92 437.01 653.01 437.01 653.01Z" fill="black"/>
<path opacity="0.1" d="M556.1 655.4C556.1 655.4 550.6 659.93 550.75 663.67Z" fill="black"/>
<path opacity="0.1" d="M429.1 744.67C429.1 744.67 429.1 748.92 436.97 755.17Z" fill="black"/>
<path opacity="0.1" d="M568.01 734.67C568.01 734.67 567.17 743.51 559.51 748.09Z" fill="black"/>
<path opacity="0.1" d="M404.77 784.3C404.77 784.3 412.94 781.78 416.33 786.56Z" fill="black"/>
<path opacity="0.1" d="M594.04 785.3C594.04 785.3 580.51 784.51 581.04 788.17Z" fill="black"/>
<path opacity="0.1" d="M864.17 777.89C879.043 777.89 891.1 775.853 891.1 773.34C891.1 770.827 879.043 768.79 864.17 768.79C849.297 768.79 837.24 770.827 837.24 773.34C837.24 775.853 849.297 777.89 864.17 777.89Z" fill="#2CAEBA"/>
<path opacity="0.1" d="M91.09 815.23C105.963 815.23 118.02 813.193 118.02 810.68C118.02 808.167 105.963 806.13 91.09 806.13C76.217 806.13 64.16 808.167 64.16 810.68C64.16 813.193 76.217 815.23 91.09 815.23Z" fill="#2CAEBA"/>
<path opacity="0.1" d="M195.26 839.64C210.133 839.64 222.19 837.603 222.19 835.09C222.19 832.577 210.133 830.54 195.26 830.54C180.387 830.54 168.33 832.577 168.33 835.09C168.33 837.603 180.387 839.64 195.26 839.64Z" fill="#2CAEBA"/>
<path d="M805.22 828.9C827.427 828.9 845.43 825.856 845.43 822.1C845.43 818.344 827.427 815.3 805.22 815.3C783.013 815.3 765.01 818.344 765.01 822.1C765.01 825.856 783.013 828.9 805.22 828.9Z" fill="#2CAEBA"/>
<path d="M821.85 810.98C823.683 809.481 825.018 807.463 825.68 805.19C826.18 802.9 825.2 800.19 823 799.3C820.54 798.36 817.91 800.07 815.92 801.79C813.93 803.51 811.64 805.48 809.03 805.11C810.373 803.895 811.379 802.353 811.948 800.633C812.518 798.914 812.632 797.077 812.28 795.3C812.163 794.563 811.848 793.872 811.37 793.3C810.01 791.84 807.53 792.46 805.9 793.62C800.7 797.27 799.25 804.34 799.22 810.69C798.69 808.4 799.14 806.01 799.12 803.69C799.1 801.37 798.47 798.69 796.48 797.46C795.252 796.801 793.873 796.477 792.48 796.52C790.14 796.43 787.54 796.67 785.94 798.38C783.94 800.5 784.48 804.06 786.2 806.38C787.92 808.7 790.55 810.19 792.97 811.8C794.906 812.954 796.557 814.53 797.8 816.41C797.95 816.673 798.071 816.951 798.16 817.24H812.77C816.064 815.571 819.119 813.465 821.85 810.98Z" fill="#2CAEBA"/>
<path d="M196.65 723.27C196.65 723.27 202.15 730.46 194.12 741.27C186.09 752.08 179.47 761.27 182.12 768.04C182.12 768.04 194.24 747.89 204.12 747.61C214 747.33 207.5 735.39 196.65 723.27Z" fill="#2CAEBA"/>
<path opacity="0.1" d="M196.65 723.27C197.13 723.966 197.507 724.727 197.77 725.53C207.39 736.83 212.52 747.38 203.27 747.64C194.66 747.89 184.33 763.29 181.85 767.18C181.93 767.48 182.03 767.77 182.14 768.07C182.14 768.07 194.26 747.92 204.14 747.64C214.02 747.36 207.5 735.39 196.65 723.27Z" fill="black"/>
<path d="M206.86 732.43C206.86 734.96 206.58 737.01 206.23 737.01C205.88 737.01 205.6 734.96 205.6 732.43C205.6 729.9 205.95 731.09 206.3 731.09C206.65 731.09 206.86 729.9 206.86 732.43Z" fill="#FFD037"/>
<path d="M210.37 735.45C208.15 736.66 206.21 737.39 206.05 737.08C205.89 736.77 207.54 735.54 209.76 734.33C211.98 733.12 211.11 734 211.27 734.33C211.43 734.66 212.59 734.24 210.37 735.45Z" fill="#FFD037"/>
<path d="M167.64 723.27C167.64 723.27 162.14 730.46 170.17 741.27C178.2 752.08 184.82 761.27 182.17 768.04C182.17 768.04 170.06 747.89 160.17 747.61C150.28 747.33 156.77 735.39 167.64 723.27Z" fill="#2CAEBA"/>
<path opacity="0.1" d="M167.64 723.27C167.159 723.966 166.779 724.727 166.51 725.53C156.89 736.83 151.77 747.38 161.01 747.64C169.63 747.89 179.96 763.29 182.44 767.18C182.358 767.482 182.258 767.78 182.14 768.07C182.14 768.07 170.03 747.92 160.14 747.64C150.25 747.36 156.77 735.39 167.64 723.27Z" fill="black"/>
<path d="M157.42 732.43C157.42 734.96 157.71 737.01 158.06 737.01C158.41 737.01 158.69 734.96 158.69 732.43C158.69 729.9 158.34 731.09 157.99 731.09C157.64 731.09 157.42 729.9 157.42 732.43Z" fill="#FFD037"/>
<path d="M153.92 735.45C156.14 736.66 158.07 737.39 158.24 737.08C158.41 736.77 156.74 735.54 154.52 734.33C152.3 733.12 153.18 734 153.01 734.33C152.84 734.66 151.7 734.24 153.92 735.45Z" fill="#FFD037"/>
<path d="M159.17 767.13C159.17 767.13 174.53 766.65 179.17 763.36C183.81 760.07 202.8 756.12 203.94 761.41C205.08 766.7 227.03 787.7 209.69 787.84C192.35 787.98 169.39 785.14 164.77 782.33C160.15 779.52 159.17 767.13 159.17 767.13Z" fill="#A8A8A8"/>
<path opacity="0.2" d="M209.99 786C192.65 786.14 169.69 783.3 165.07 780.49C161.56 778.34 160.15 770.65 159.68 767.11H159.17C159.17 767.11 160.17 779.49 164.76 782.31C169.35 785.13 192.34 787.96 209.68 787.82C214.68 787.82 216.41 786 216.32 783.36C215.62 784.98 213.71 785.97 209.99 786Z" fill="black"/>
<path d="M512.921 492.265C511.518 491.43 496.009 493.608 498 491C491.764 491 496.475 490.155 492.876 489.657C489.278 489.16 489.335 480.19 485.817 479.217C483.454 478.556 475.442 466.657 479.418 482.604C480.526 487.049 480.627 488.104 479.955 489.657C479.169 491.921 481.954 496.894 482.647 499.207C483.34 501.52 487.853 506.153 484.147 503.707C484.551 506.621 487.012 507.863 488.147 510.491C488.617 511.484 487.865 511.551 488.647 512.207C494.815 511.216 489.429 512.863 488.647 512.207C490.54 512.574 488.312 513.397 490.101 512.564C490.974 512.068 491.914 511.766 492.876 511.672C493.577 511.729 494.264 511.936 494.902 512.284C497.11 513.346 497.213 512.052 499.147 513.707C500.533 515.05 503.079 513.687 504.647 514.707C505.434 515.21 507.239 514.657 508.132 514.707C509.026 514.757 515.844 514.119 516.67 513.707C519.443 512.046 517.537 514.583 520.122 512.564C521.905 511.151 520.758 510.573 522.89 510.491C525.022 510.408 524.226 509.483 525.257 507.268C526.178 505.363 529.015 503.339 528.919 501.15C528.824 498.845 529.133 496.541 529.827 494.384C531.048 490.605 533.494 486.891 532.669 482.966C532.131 480.39 534.863 479.617 535 477C535.096 476.326 537.636 466.879 532.496 470.255C532.496 469.911 537.054 469.276 533.647 469.707C533.467 469.439 533.94 469.78 533.658 469.707C533.351 469.709 528.919 472.225 528.665 472.433C527.383 473.273 526.231 474.369 525.257 475.672C522.636 479.183 524.145 488.053 520.122 489.657C517.407 490.705 515.377 493.751 512.921 492.265Z" fill="#8E6F7F"/>
</g>
<defs>
<clipPath id="clip0_1_2">
<rect width="1009.54" height="839.64" fill="white"/>
</clipPath>
</defs>
</svg>
